{"title":"Saturday.Night.Live.S04.DVDRip.XviD-FFNDVD","uid":13330471,"size":11319955456,"categoryP":"video","categoryS":"tv_shows","magnet":"?xt=urn:btih:8530a6d8e2d23e0d494baa81ff310c21adde901a&amp;dn=Saturday.Night.Live.S04.DVDRip.XviD-FFNDVD&amp;tr=udp%3A%2F%2Ftracker.leechers-paradise.org%3A6969&amp;tr=udp%3A%2F%2Fzer0day.ch%3A1337&amp;tr=udp%3A%2F%2Fopen.demonii.com%3A1337&amp;tr=udp%3A%2F%2Ftracker.coppersurfer.tk%3A6969&amp;tr=udp%3A%2F%2Fexodus.desync.com%3A6969","seeders":1,"leechers":0,"uploader":"imPROvise","files":20,"time":1453944496,"description":"1 The Rolling Stones 1978-10-07\r\n2 Fred Willard/Devo 1978-10-14\r\n3 Frank Zappa 1978-10-21\r\n4 Steve Martin/Van Morrison 1978-11-04\r\n5 Buck Henry/The Grateful Dead 1978-11-11\r\n6 Carrie Fisher/The Blues Brothers 1978-11-18\r\n7 Walter Matthau/Garrett Morris 1978-12-02\r\n8 Eric Idle/Kate Bush 1978-12-09\r\n9 Elliott Gould/Peter Tosh with Mick Jagger 1978-12-16\r\n10 Michael Palin/The Doobie Brothers 1979-01-27\r\n11 Cicely Tyson/Talking Heads 1979-02-10\r\n12 Rick Nelson/Judy Collins 1979-02-17\r\n13 Kate Jackson/Delbert McClinton 1979-02-24\r\n14 Gary Busey with Rick Danko and Paul Butterfield, Eubie Blake 1979-03-10\r\n15 Margot Kidder/The Chieftains 1979-03-17\r\n16 Richard Benjamin/Rickie Lee Jones 1979-04-07\r\n17 Milton Berle/Ornette Coleman 1979-04-14\r\n18 Michael Palin/James Taylor 1979-05-12\r\n19 Maureen Stapleton/Linda Ronstadt, Phoebe Snow 1979-05-19\r\n20 Buck Henry/Bette Midler 1979-05-26\r\nFormat: AVI\r\nFormat/Info: Audio Video Interleave\r\nFile size: 524 MiB\r\nDuration: 1h 6mn\r\nOverall bit rate mode: Variable\r\nOverall bit rate: 1 108 Kbps\r\nWriting application: VirtualDubMod 1.5.4.1 (build 2178/release)\r\nWriting library: VirtualDubMod build 2178/release\r\n\r\nVideo\r\nID: 0\r\nFormat: MPEG-4 Visual\r\nFormat profile: Advanced   \r\nFormat settings, BVOP: 1\r\nFormat settings, QPel: No\r\nFormat settings, GMC: No warppoints\r\nFormat settings, Matrix: Default (H.263)\r\nMuxing mode: Packed bitstream\r\nCodec ID: XVID\r\nCodec ID/Hint: XviD\r\nDuration: 1h 6mn\r\nBit rate: 1 034 Kbps\r\nWidth: 512 pixels\r\nHeight: 384 pixels\r\nDisplay aspect ratio: 4:3\r\nFrame rate: 29.970 fps\r\nColor space: YUV\r\nChroma subsampling: 4:2:0\r\nBit depth: 8 bits\r\nScan type: Progressive\r\nCompression mode: Lossy\r\nBits/(Pixel*Frame): 0.175\r\nStream size: 489 MiB (93%)\r\nWriting library: XviD 1.2.0.dev47 (UTC 2006-11-01)\r\n\r\nAudio\r\nID: 1\r\nFormat: MPEG Audio\r\nFormat version: Version 1\r\nFormat profile: Layer 3\r\nCodec ID: 55\r\nCodec ID/Hint: MP3\r\nDuration: 1h 6mn\r\nBit rate mode: Variable\r\nBit rate: 59.8 Kbps\r\nNominal bit rate: 64.0 Kbps\r\nChannel(s): 1 channel\r\nSampling rate: 48.0 KHz\r\nCompression mode: Lossy\r\nStream size: 28.3 MiB (5%)\r\nAlignment: Aligned on interleaves\r\nInterleave, duration: 24 ms (0.72 video frame)\r\nInterleave, preload duration: 581 ms\r\nWriting library: LAME3.97\r\nEncoding settings: -m m -V 4 -q 2 -lowpass 16.5 --abr 64\r\nLanguage: English","torrent":{"xt":"urn:btih:8530a6d8e2d23e0d494baa81ff310c21adde901a","amp;dn":"Saturday.Night.Live.S04.DVDRip.XviD-FFNDVD","amp;tr":["udp%3A%2F%2Ftracker.leechers-paradise.org%3A6969","udp%3A%2F%2Fzer0day.ch%3A1337","udp%3A%2F%2Fopen.demonii.com%3A1337","udp%3A%2F%2Ftracker.coppersurfer.tk%3A6969","udp%3A%2F%2Fexodus.desync.com%3A6969"],"infoHash":"8530a6d8e2d23e0d494baa81ff310c21adde901a","infoHashBuffer":{"type":"Buffer","data":[133,48,166,216,226,210,62,13,73,75,170,129,255,49,12,33,173,222,144,26]},"announce":[],"urlList":[]}}